<svg width="57" height="13" viewBox="0 0 57 13" fill="none" xmlns="http://www.w3.org/2000/svg">
<g clip-path="url(#clip0_1968_1787)">
<path d="M12.7461 1.4444C12.7461 0.944413 13.0758 0.608398 13.5936 0.608398C14.1114 0.608398 14.4411 0.944413 14.4411 1.4444V6.67817H17.2753C17.7604 6.67817 18.1555 6.92279 18.1555 7.38246C18.1555 7.84213 17.7631 8.08674 17.2753 8.08674H13.7381C13.1385 8.08674 12.7461 7.85288 12.7461 7.10827V1.4444Z" fill="#00AFE3"/>
<path d="M21.4534 2.61914C23.2739 2.61914 24.2467 3.84492 24.2467 5.41478C24.2467 6.904 23.5109 8.22118 21.4534 8.22118C19.396 8.22118 18.6602 6.904 18.6602 5.41478C18.6602 3.84223 19.633 2.61914 21.4534 2.61914ZM21.4534 7.11905C22.3528 7.11905 22.737 6.32337 22.737 5.41478C22.737 4.44437 22.3337 3.72127 21.4534 3.72127C20.5732 3.72127 20.1699 4.44706 20.1699 5.41478C20.1699 6.32337 20.5514 7.11905 21.4534 7.11905Z" fill="#00AFE3"/>
<path d="M27.7521 2.61914C29.0139 2.61914 29.9568 3.32343 29.9568 4.01696C29.9568 4.44437 29.6352 4.65942 29.2537 4.65942C28.5397 4.65942 28.7986 3.7831 27.7113 3.7831C27.1226 3.7831 26.4277 4.18094 26.4277 5.52768C26.4277 6.45509 26.8719 7.05722 27.7004 7.05722C28.755 7.05722 28.5288 6.09757 29.3246 6.09757C29.7061 6.09757 29.9568 6.37175 29.9568 6.67014C29.9568 7.32335 29.2128 8.22118 27.6595 8.22118C25.7982 8.22118 24.918 7.08948 24.918 5.52768C24.918 3.81267 25.9018 2.61914 27.7521 2.61914Z" fill="#00AFE3"/>
<path d="M35.7813 6.64937C35.7813 7.27301 35.9366 7.41548 35.9366 7.64935C35.9366 7.98536 35.615 8.22191 35.2526 8.22191C34.6013 8.22191 34.3833 7.81332 34.3642 7.35365C33.7756 7.99611 33.0915 8.22191 32.2958 8.22191C31.4374 8.22191 30.5898 7.64128 30.5898 6.70044C30.5898 5.46659 31.5409 5.11983 32.6991 4.98542L33.6202 4.88327C33.9827 4.84295 34.2715 4.75962 34.2715 4.33221C34.2715 3.9048 33.8273 3.71932 33.3205 3.71932C32.2031 3.71932 32.1732 4.5365 31.5709 4.5365C31.1894 4.5365 30.9305 4.27038 30.9305 3.96394C30.9305 3.37255 31.778 2.61719 33.3314 2.61719C34.7784 2.61719 35.784 3.07686 35.784 4.14673V6.64668L35.7813 6.64937ZM34.2715 5.57949C34.1053 5.73272 33.7946 5.78379 33.6202 5.81336L33.0725 5.894C32.4402 5.9854 32.0996 6.17894 32.0996 6.62786C32.0996 6.96388 32.4212 7.24075 32.9362 7.24075C33.7647 7.24075 34.2715 6.71119 34.2715 6.16013V5.57949Z" fill="#00AFE3"/>
<path d="M37.168 1.35301C37.168 0.86377 37.4677 0.608398 37.9228 0.608398C38.3779 0.608398 38.6777 0.86377 38.6777 1.35301V7.47654C38.6777 7.96578 38.3779 8.22115 37.9228 8.22115C37.4677 8.22115 37.168 7.96578 37.168 7.47654V1.35301Z" fill="#00AFE3"/>
<path d="M40.8071 0.568359C41.2404 0.568359 41.5947 0.915127 41.5947 1.34523C41.5947 1.77532 41.2431 2.12209 40.8071 2.12209C40.3711 2.12209 40.0195 1.77532 40.0195 1.34523C40.0195 0.915127 40.3711 0.568359 40.8071 0.568359ZM40.0522 3.364C40.0522 2.96616 40.2185 2.61939 40.8071 2.61939C41.3957 2.61939 41.562 2.96616 41.562 3.364V7.47682C41.562 7.87467 41.3957 8.22143 40.8071 8.22143C40.2185 8.22143 40.0522 7.87467 40.0522 7.47682V3.364Z" fill="#00AFE3"/>
<path d="M44.8701 2.61988C46.0174 2.61988 47.1783 3.06879 47.1783 3.75157C47.1783 4.09834 46.9412 4.40479 46.5461 4.40479C45.9574 4.40479 45.9356 3.722 44.9845 3.722C44.4559 3.722 44.1152 3.86447 44.1152 4.18167C44.1152 4.52844 44.4559 4.60908 44.9219 4.71123L45.5541 4.8537C46.4125 5.04725 47.4372 5.40477 47.4372 6.44507C47.4372 7.6601 46.2463 8.22191 45.1099 8.22191C43.7446 8.22191 42.6055 7.61978 42.6055 6.88592C42.6055 6.56066 42.7908 6.26228 43.2159 6.26228C43.8672 6.26228 43.9299 7.18161 45.0472 7.18161C45.5841 7.18161 45.9274 6.94775 45.9274 6.6413C45.9274 6.26496 45.5977 6.20314 45.0581 6.06873L44.1697 5.85368C43.2895 5.63863 42.6082 5.28111 42.6082 4.28113C42.6082 3.0661 43.8291 2.61719 44.8728 2.61719L44.8701 2.61988Z" fill="#00AFE3"/>
<path d="M48.7842 3.73225H48.5253C48.1002 3.73225 47.9258 3.56828 47.9258 3.24302C47.9258 2.91775 48.1029 2.75378 48.5253 2.75378H48.7842V1.84519C48.7842 1.35596 49.084 1.10059 49.5391 1.10059C49.9942 1.10059 50.2939 1.35596 50.2939 1.84519V2.75378H50.7491C51.1933 2.75378 51.4331 2.8855 51.4331 3.24302C51.4331 3.60054 51.196 3.73225 50.7491 3.73225H50.2939V6.71338C50.2939 6.93918 50.4193 7.06014 50.6864 7.06014H50.9044C51.2341 7.06014 51.4331 7.24294 51.4331 7.56013C51.4331 7.98755 51.0597 8.2241 50.3375 8.2241C49.242 8.2241 48.7869 7.77518 48.7869 6.89617V3.73225H48.7842Z" fill="#00AFE3"/>
<path d="M54.2529 2.61988C55.4002 2.61988 56.5611 3.06879 56.5611 3.75157C56.5611 4.09834 56.324 4.40479 55.9289 4.40479C55.3402 4.40479 55.3184 3.722 54.3673 3.722C53.8387 3.722 53.498 3.86447 53.498 4.18167C53.498 4.52844 53.8387 4.60908 54.3047 4.71123L54.9369 4.8537C55.7953 5.04725 56.82 5.40477 56.82 6.44507C56.82 7.6601 55.6291 8.22191 54.4927 8.22191C53.1274 8.22191 51.9883 7.61978 51.9883 6.88592C51.9883 6.56066 52.1736 6.26228 52.5987 6.26228C53.25 6.26228 53.3127 7.18161 54.43 7.18161C54.9669 7.18161 55.3103 6.94775 55.3103 6.6413C55.3103 6.26496 54.9805 6.20314 54.4409 6.06873L53.5525 5.85368C52.6723 5.63863 51.991 5.28111 51.991 4.28113C51.991 3.0661 53.2119 2.61719 54.2556 2.61719L54.2529 2.61988Z" fill="#00AFE3"/>
<path d="M12.7617 12.4084V10.1182H14.097V10.4757H13.1841V11.1235H13.9526V11.481H13.1841V12.4058H12.7617V12.4084Z" fill="black"/>
<path d="M14.418 10.4808V10.1152H14.8322V10.4808H14.418ZM14.418 12.4082V10.7631H14.8322V12.4082H14.418Z" fill="black"/>
<path d="M15.2773 12.4083V10.7632H15.6752V10.9568L15.6698 11.0724H15.6752C15.7188 10.9836 15.7897 10.903 15.8905 10.8331C15.9913 10.7605 16.1167 10.7256 16.2666 10.7256C16.6536 10.7256 16.8498 10.9353 16.8498 11.3519V12.411H16.4355V11.4379C16.4355 11.3277 16.4165 11.2444 16.3783 11.1879C16.3402 11.1315 16.272 11.1019 16.1739 11.1019C16.0295 11.1019 15.915 11.153 15.8251 11.2578C15.7379 11.36 15.6916 11.489 15.6916 11.6422V12.4137H15.2773V12.4083Z" fill="black"/>
<path d="M17.1707 11.5859C17.1707 11.3278 17.2415 11.1208 17.3805 10.9622C17.5222 10.8036 17.7021 10.7257 17.9256 10.7257C18.149 10.7257 18.3071 10.7983 18.4134 10.9407H18.4188C18.4134 10.9138 18.4134 10.8816 18.4134 10.844V10.1182H18.8249V12.4084H18.4352V12.266L18.4406 12.1638H18.4352C18.3861 12.2498 18.3125 12.3197 18.2199 12.3708C18.1272 12.4219 18.0237 12.4488 17.9065 12.4488C17.683 12.4488 17.5059 12.3681 17.3696 12.2095C17.2334 12.0509 17.168 11.8439 17.168 11.5859H17.1707ZM17.5904 11.5859C17.5904 11.7418 17.6285 11.8654 17.7048 11.9595C17.7811 12.0536 17.882 12.102 18.0046 12.102C18.1218 12.102 18.2226 12.059 18.3016 11.9703C18.3807 11.8816 18.4215 11.7525 18.4215 11.5805C18.4215 11.4434 18.3861 11.3251 18.3125 11.223C18.239 11.1208 18.1381 11.0724 18.0046 11.0724C17.8874 11.0724 17.7866 11.1181 17.7076 11.2095C17.6285 11.3009 17.5876 11.4246 17.5876 11.5832L17.5904 11.5859Z" fill="black"/>
<path d="M20.1602 12.4084V10.1182H20.5826V12.0509H21.5854V12.4084H20.1602Z" fill="black"/>
<path d="M21.9636 12.2048C21.7864 12.0435 21.6992 11.8365 21.6992 11.5865C21.6992 11.3365 21.7864 11.1322 21.9636 10.9683C22.1407 10.807 22.356 10.7236 22.6121 10.7236C22.8683 10.7236 23.0863 10.8043 23.2635 10.9683C23.4406 11.1295 23.5305 11.3365 23.5305 11.5865C23.5305 11.8365 23.4433 12.0408 23.2662 12.2048C23.0891 12.3661 22.8738 12.4494 22.6149 12.4494C22.356 12.4494 22.1407 12.3688 21.9636 12.2048ZM22.1189 11.5865C22.1189 11.7371 22.1652 11.8607 22.2606 11.9548C22.356 12.0516 22.4732 12.0973 22.6121 12.0973C22.7511 12.0973 22.8683 12.0489 22.9664 11.9548C23.0618 11.858 23.1109 11.7371 23.1109 11.5865C23.1109 11.436 23.0618 11.315 22.9664 11.2182C22.8683 11.1215 22.7511 11.0731 22.6149 11.0731C22.4786 11.0731 22.3614 11.1215 22.2661 11.2182C22.1707 11.315 22.1216 11.4387 22.1216 11.5865H22.1189Z" fill="black"/>
<path d="M23.7773 11.5858C23.7773 11.3439 23.8618 11.1422 24.0281 10.9756C24.1943 10.8089 24.4123 10.7256 24.6848 10.7256C24.8047 10.7256 24.9219 10.7471 25.0391 10.7874C25.1536 10.8277 25.2517 10.8896 25.328 10.9702L25.1427 11.2498C25.0227 11.1315 24.8783 11.0724 24.7121 11.0724C24.5622 11.0724 24.4396 11.1207 24.3469 11.2202C24.2542 11.317 24.2052 11.4379 24.2052 11.5831C24.2052 11.7283 24.2542 11.8492 24.3496 11.9487C24.445 12.0481 24.5704 12.0992 24.7257 12.0992C24.9056 12.0992 25.0691 12.0293 25.2162 11.8895L25.377 12.1799C25.298 12.2605 25.1972 12.3277 25.0745 12.3761C24.9519 12.4245 24.8238 12.4487 24.6903 12.4487C24.4205 12.4487 24.2025 12.3653 24.0335 12.2014C23.8673 12.0374 23.7828 11.8331 23.7828 11.5858H23.7773Z" fill="black"/>
<path d="M25.543 11.9536C25.543 11.838 25.5757 11.7385 25.6383 11.6579C25.7038 11.5772 25.7882 11.5154 25.8945 11.4778C26.0008 11.4401 26.1016 11.4133 26.2025 11.3998C26.3006 11.3837 26.4068 11.3783 26.5159 11.3783H26.5867V11.3568C26.5867 11.1633 26.4831 11.0665 26.2733 11.0665C26.1207 11.0665 25.9654 11.1202 25.81 11.2251L25.6574 10.9321C25.7283 10.8756 25.8264 10.8272 25.949 10.7896C26.0716 10.7493 26.1916 10.7305 26.3115 10.7305C26.5295 10.7305 26.6984 10.7869 26.8211 10.9025C26.9437 11.0181 27.0037 11.1794 27.0037 11.3837V12.4132H26.6167V12.2734L26.6276 12.1552H26.6221C26.5704 12.2439 26.4968 12.3138 26.4041 12.3702C26.3115 12.424 26.2079 12.4536 26.0962 12.4536C25.9408 12.4536 25.81 12.4079 25.7065 12.3165C25.6002 12.2251 25.5484 12.1068 25.5484 11.9589L25.543 11.9536ZM25.9572 11.9159C25.9572 11.9751 25.979 12.0235 26.0253 12.0665C26.0689 12.1095 26.1316 12.131 26.2106 12.131C26.3224 12.131 26.4123 12.0853 26.4859 11.9966C26.5595 11.9079 26.5949 11.8084 26.5949 11.7009V11.6552H26.524C26.148 11.6552 25.9626 11.7412 25.9626 11.9159H25.9572Z" fill="black"/>
<path d="M27.4285 11.895V10.1182H27.84V11.8332C27.84 11.9192 27.8536 11.9783 27.8809 12.0106C27.9081 12.0429 27.9517 12.059 28.009 12.059C28.0362 12.059 28.0553 12.059 28.0716 12.0563V12.4138C28.0117 12.4192 27.9681 12.4246 27.9408 12.4246C27.8727 12.4246 27.8128 12.4192 27.761 12.4058C27.7092 12.3923 27.6547 12.3708 27.6002 12.3385C27.5457 12.3063 27.5021 12.2498 27.4721 12.1746C27.4421 12.0993 27.4258 12.0052 27.4258 11.895H27.4285Z" fill="black"/>
<path d="M29.2383 12.4084V10.1182H30.1349C30.3529 10.1182 30.53 10.1881 30.669 10.3251C30.808 10.4622 30.8761 10.6423 30.8761 10.8628C30.8761 11.0832 30.808 11.266 30.669 11.4058C30.5327 11.5456 30.3529 11.6181 30.1349 11.6181H29.6607V12.4084H29.2383ZM29.6607 11.2552H30.0558C30.1785 11.2552 30.2738 11.2203 30.342 11.1477C30.4101 11.0778 30.4455 10.981 30.4455 10.8601C30.4455 10.7391 30.4101 10.6477 30.342 10.5778C30.2738 10.5079 30.1812 10.473 30.0613 10.473H29.658V11.2525L29.6607 11.2552Z" fill="black"/>
<path d="M31.1758 12.4086V10.7635H31.5737V11.0538L31.5682 11.1667H31.5737C31.6118 11.0457 31.6799 10.9462 31.7753 10.8629C31.8707 10.7823 31.9797 10.7393 32.1023 10.7393C32.1187 10.7393 32.1459 10.7393 32.1814 10.7446V11.1479C32.1596 11.1425 32.1269 11.1425 32.0805 11.1425C31.9198 11.1425 31.7971 11.2016 31.7154 11.3172C31.6336 11.4328 31.59 11.5753 31.59 11.7419V12.4059H31.1758V12.4086Z" fill="black"/>
<path d="M32.5964 12.2048C32.4192 12.0435 32.332 11.8365 32.332 11.5865C32.332 11.3365 32.4192 11.1322 32.5964 10.9683C32.7735 10.807 32.9888 10.7236 33.245 10.7236C33.5011 10.7236 33.7191 10.8043 33.8963 10.9683C34.0734 11.1295 34.1633 11.3365 34.1633 11.5865C34.1633 11.8365 34.0761 12.0408 33.899 12.2048C33.7219 12.3661 33.5066 12.4494 33.2477 12.4494C32.9888 12.4494 32.7735 12.3688 32.5964 12.2048ZM32.7544 11.5865C32.7544 11.7371 32.8008 11.8607 32.8961 11.9548C32.9915 12.0516 33.1087 12.0973 33.2477 12.0973C33.3867 12.0973 33.5039 12.0489 33.602 11.9548C33.6973 11.858 33.7464 11.7371 33.7464 11.5865C33.7464 11.436 33.6973 11.315 33.602 11.2182C33.5039 11.1215 33.3867 11.0731 33.2504 11.0731C33.1142 11.0731 32.997 11.1215 32.9016 11.2182C32.8062 11.315 32.7572 11.4387 32.7572 11.5865H32.7544Z" fill="black"/>
<path d="M34.586 12.4085V11.1128H34.3789V10.7875H34.586V10.7176C34.586 10.6155 34.6024 10.5241 34.6378 10.4488C34.6705 10.3735 34.7114 10.3144 34.7604 10.2714C34.8095 10.2284 34.8667 10.1961 34.9321 10.1692C34.9975 10.1424 35.0575 10.1262 35.1093 10.1182C35.161 10.1101 35.2155 10.1074 35.27 10.1074C35.33 10.1074 35.379 10.1101 35.4117 10.1182V10.4676C35.3954 10.4623 35.3654 10.4623 35.3273 10.4623C35.112 10.4623 35.003 10.551 35.003 10.7311V10.7929H35.3627V11.1182H35.003V12.4138H34.5887L34.586 12.4085Z" fill="black"/>
<path d="M35.5195 11.5858C35.5195 11.3331 35.5986 11.1261 35.7566 10.9648C35.9147 10.8035 36.1191 10.7256 36.3698 10.7256C36.6014 10.7256 36.7813 10.7982 36.9121 10.946C37.0429 11.0939 37.1083 11.2793 37.1083 11.5051C37.1083 11.5428 37.1029 11.5938 37.0947 11.6637H35.9474C35.961 11.8008 36.0128 11.9084 36.1082 11.9836C36.2008 12.0589 36.3153 12.0992 36.4488 12.0992C36.615 12.0992 36.7731 12.0401 36.9257 11.9191L37.0892 12.2121C37.0075 12.2847 36.9039 12.3438 36.784 12.3842C36.6641 12.4272 36.5415 12.446 36.4188 12.446C36.1518 12.446 35.9338 12.3627 35.7675 12.196C35.6013 12.0293 35.5195 11.825 35.5195 11.5858ZM35.9583 11.3815H36.6941C36.6941 11.274 36.6587 11.1879 36.5987 11.1261C36.536 11.0643 36.457 11.032 36.3616 11.032C36.2581 11.032 36.1681 11.0643 36.0973 11.1261C36.0264 11.1906 35.9801 11.274 35.961 11.3788L35.9583 11.3815Z" fill="black"/>
<path d="M37.3269 12.2036L37.5123 11.9321C37.6458 12.053 37.8038 12.1122 37.9864 12.1122C38.06 12.1122 38.1172 12.0987 38.1581 12.0692C38.199 12.0396 38.2181 11.9993 38.2181 11.9482C38.2181 11.8998 38.1908 11.8595 38.1336 11.8245C38.0764 11.7896 38.0082 11.7573 37.9292 11.7251C37.8502 11.6928 37.7684 11.6606 37.6867 11.6256C37.6049 11.5907 37.5341 11.5396 37.4768 11.4697C37.4196 11.3998 37.3923 11.3138 37.3923 11.2143C37.3923 11.0584 37.4523 10.9375 37.5749 10.8514C37.6948 10.7654 37.8474 10.7197 38.03 10.7197C38.2617 10.7197 38.4497 10.7816 38.5914 10.9079L38.4388 11.1955C38.3898 11.1552 38.3271 11.1203 38.248 11.0934C38.169 11.0665 38.0927 11.0531 38.0164 11.0531C37.8611 11.0531 37.7848 11.1041 37.7848 11.2063C37.7848 11.252 37.8147 11.2923 37.872 11.3246C37.9292 11.3568 38.0001 11.3891 38.0818 11.4213C38.1636 11.4536 38.2426 11.4832 38.3244 11.5154C38.4061 11.5477 38.4742 11.5987 38.5287 11.674C38.5832 11.7466 38.6105 11.8353 38.6105 11.9374C38.6105 12.0826 38.5533 12.2036 38.4361 12.3003C38.3216 12.3971 38.169 12.4428 37.9783 12.4428C37.7112 12.4428 37.4932 12.3622 37.3242 12.2009L37.3269 12.2036Z" fill="black"/>
<path d="M38.8191 12.2036L39.0044 11.9321C39.138 12.053 39.296 12.1122 39.4786 12.1122C39.5522 12.1122 39.6094 12.0987 39.6503 12.0692C39.6912 12.0396 39.7103 11.9993 39.7103 11.9482C39.7103 11.8998 39.683 11.8595 39.6258 11.8245C39.5686 11.7896 39.5004 11.7573 39.4214 11.7251C39.3424 11.6928 39.2606 11.6606 39.1789 11.6256C39.0971 11.5907 39.0262 11.5396 38.969 11.4697C38.9118 11.3998 38.8845 11.3138 38.8845 11.2143C38.8845 11.0584 38.9445 10.9375 39.0671 10.8514C39.187 10.7654 39.3396 10.7197 39.5222 10.7197C39.7539 10.7197 39.9419 10.7816 40.0836 10.9079L39.931 11.1955C39.8819 11.1552 39.8193 11.1203 39.7402 11.0934C39.6612 11.0665 39.5849 11.0531 39.5086 11.0531C39.3533 11.0531 39.277 11.1041 39.277 11.2063C39.277 11.252 39.3069 11.2923 39.3642 11.3246C39.4214 11.3568 39.4922 11.3891 39.574 11.4213C39.6558 11.4536 39.7348 11.4832 39.8165 11.5154C39.8983 11.5477 39.9664 11.5987 40.0209 11.674C40.0754 11.7466 40.1027 11.8353 40.1027 11.9374C40.1027 12.0826 40.0455 12.2036 39.9283 12.3003C39.8138 12.3971 39.6612 12.4428 39.4704 12.4428C39.2034 12.4428 38.9854 12.3622 38.8164 12.2009L38.8191 12.2036Z" fill="black"/>
<path d="M40.457 10.4808V10.1152H40.8713V10.4808H40.457ZM40.457 12.4082V10.7631H40.8713V12.4082H40.457Z" fill="black"/>
<path d="M41.4636 12.2048C41.2864 12.0435 41.1992 11.8365 41.1992 11.5865C41.1992 11.3365 41.2864 11.1322 41.4636 10.9683C41.6407 10.807 41.856 10.7236 42.1122 10.7236C42.3683 10.7236 42.5863 10.8043 42.7635 10.9683C42.9406 11.1295 43.0305 11.3365 43.0305 11.5865C43.0305 11.8365 42.9433 12.0408 42.7662 12.2048C42.5891 12.3661 42.3738 12.4494 42.1149 12.4494C41.856 12.4494 41.6407 12.3688 41.4636 12.2048ZM41.6189 11.5865C41.6189 11.7371 41.6652 11.8607 41.7606 11.9548C41.856 12.0516 41.9732 12.0973 42.1122 12.0973C42.2511 12.0973 42.3683 12.0489 42.4664 11.9548C42.5618 11.858 42.6109 11.7371 42.6109 11.5865C42.6109 11.436 42.5618 11.315 42.4664 11.2182C42.3683 11.1215 42.2511 11.0731 42.1149 11.0731C41.9786 11.0731 41.8614 11.1215 41.7661 11.2182C41.6707 11.315 41.6216 11.4387 41.6216 11.5865H41.6189Z" fill="black"/>
<path d="M43.3789 12.4083V10.7632H43.7768V10.9568L43.7713 11.0724H43.7768C43.8204 10.9836 43.8912 10.903 43.9921 10.8331C44.0929 10.7605 44.2183 10.7256 44.3681 10.7256C44.7551 10.7256 44.9513 10.9353 44.9513 11.3519V12.411H44.5371V11.4379C44.5371 11.3277 44.518 11.2444 44.4799 11.1879C44.4417 11.1315 44.3736 11.1019 44.2755 11.1019C44.1311 11.1019 44.0166 11.153 43.9267 11.2578C43.8395 11.36 43.7931 11.489 43.7931 11.6422V12.4137H43.3789V12.4083Z" fill="black"/>
<path d="M45.2539 11.9536C45.2539 11.838 45.2866 11.7385 45.3493 11.6579C45.4147 11.5772 45.4992 11.5154 45.6055 11.4778C45.7117 11.4401 45.8126 11.4133 45.9134 11.3998C46.0115 11.3837 46.1178 11.3783 46.2268 11.3783H46.2976V11.3568C46.2976 11.1633 46.1941 11.0665 45.9842 11.0665C45.8316 11.0665 45.6763 11.1202 45.521 11.2251L45.3684 10.9321C45.4392 10.8756 45.5373 10.8272 45.66 10.7896C45.7826 10.7493 45.9025 10.7305 46.0224 10.7305C46.2404 10.7305 46.4094 10.7869 46.532 10.9025C46.6546 11.0181 46.7146 11.1794 46.7146 11.3837V12.4132H46.3276V12.2734L46.3385 12.1552H46.3331C46.2813 12.2439 46.2077 12.3138 46.1151 12.3702C46.0224 12.424 45.9188 12.4536 45.8071 12.4536C45.6518 12.4536 45.521 12.4079 45.4174 12.3165C45.3111 12.2251 45.2594 12.1068 45.2594 11.9589L45.2539 11.9536ZM45.6654 11.9159C45.6654 11.9751 45.6872 12.0235 45.7335 12.0665C45.7771 12.1095 45.8398 12.131 45.9188 12.131C46.0306 12.131 46.1205 12.0853 46.1941 11.9966C46.2677 11.9079 46.3031 11.8084 46.3031 11.7009V11.6552H46.2322C45.8562 11.6552 45.6709 11.7412 45.6709 11.9159H45.6654Z" fill="black"/>
<path d="M47.1394 11.895V10.1182H47.5509V11.8332C47.5509 11.9192 47.5646 11.9783 47.5918 12.0106C47.6191 12.0429 47.6627 12.059 47.7199 12.059C47.7472 12.059 47.7662 12.059 47.7826 12.0563V12.4138C47.7226 12.4192 47.679 12.4246 47.6518 12.4246C47.5836 12.4246 47.5237 12.4192 47.4719 12.4058C47.4201 12.3923 47.3656 12.3708 47.3111 12.3385C47.2566 12.3063 47.213 12.2498 47.1831 12.1746C47.1531 12.0993 47.1367 12.0052 47.1367 11.895H47.1394Z" fill="black"/>
<path d="M47.9441 12.2036L48.1294 11.9321C48.263 12.053 48.421 12.1122 48.6036 12.1122C48.6772 12.1122 48.7344 12.0987 48.7753 12.0692C48.8162 12.0396 48.8353 11.9993 48.8353 11.9482C48.8353 11.8998 48.808 11.8595 48.7508 11.8245C48.6936 11.7896 48.6254 11.7573 48.5464 11.7251C48.4674 11.6928 48.3856 11.6606 48.3039 11.6256C48.2221 11.5907 48.1512 11.5396 48.094 11.4697C48.0368 11.3998 48.0095 11.3138 48.0095 11.2143C48.0095 11.0584 48.0695 10.9375 48.1921 10.8514C48.312 10.7654 48.4646 10.7197 48.6472 10.7197C48.8789 10.7197 49.0669 10.7816 49.2086 10.9079L49.056 11.1955C49.0069 11.1552 48.9443 11.1203 48.8652 11.0934C48.7862 11.0665 48.7099 11.0531 48.6336 11.0531C48.4783 11.0531 48.402 11.1041 48.402 11.2063C48.402 11.252 48.4319 11.2923 48.4892 11.3246C48.5464 11.3568 48.6172 11.3891 48.699 11.4213C48.7808 11.4536 48.8598 11.4832 48.9415 11.5154C49.0233 11.5477 49.0914 11.5987 49.1459 11.674C49.2004 11.7466 49.2277 11.8353 49.2277 11.9374C49.2277 12.0826 49.1705 12.2036 49.0533 12.3003C48.9388 12.3971 48.7862 12.4428 48.5954 12.4428C48.3284 12.4428 48.1104 12.3622 47.9414 12.2009L47.9441 12.2036Z" fill="black"/>
<path d="M49.5742 11.6661V11.3086H50.5553V11.6661H49.5742Z" fill="black"/>
<path d="M51.0508 12.4084V10.1182H52.3861V10.4757H51.4732V11.1235H52.2417V11.481H51.4732V12.4058H51.0508V12.4084Z" fill="black"/>
<path d="M52.4727 11.9536C52.4727 11.838 52.5054 11.7385 52.568 11.6579C52.6334 11.5772 52.7179 11.5154 52.8242 11.4778C52.9305 11.4401 53.0313 11.4133 53.1321 11.3998C53.2303 11.3837 53.3365 11.3783 53.4455 11.3783H53.5164V11.3568C53.5164 11.1633 53.4128 11.0665 53.203 11.0665C53.0504 11.0665 52.8951 11.1202 52.7397 11.2251L52.5871 10.9321C52.658 10.8756 52.7561 10.8272 52.8787 10.7896C53.0013 10.7493 53.1212 10.7305 53.2412 10.7305C53.4592 10.7305 53.6281 10.7869 53.7508 10.9025C53.8734 11.0181 53.9333 11.1794 53.9333 11.3837V12.4132H53.5464V12.2734L53.5573 12.1552H53.5518C53.5 12.2439 53.4265 12.3138 53.3338 12.3702C53.2412 12.424 53.1376 12.4536 53.0259 12.4536C52.8705 12.4536 52.7397 12.4079 52.6362 12.3165C52.5299 12.2251 52.4781 12.1068 52.4781 11.9589L52.4727 11.9536ZM52.8869 11.9159C52.8869 11.9751 52.9087 12.0235 52.955 12.0665C52.9986 12.1095 53.0613 12.131 53.1403 12.131C53.2521 12.131 53.342 12.0853 53.4156 11.9966C53.4891 11.9079 53.5246 11.8084 53.5246 11.7009V11.6552H53.4537C53.0776 11.6552 52.8923 11.7412 52.8923 11.9159H52.8869Z" fill="black"/>
<path d="M54.2254 12.2036L54.4107 11.9321C54.5442 12.053 54.7023 12.1122 54.8849 12.1122C54.9585 12.1122 55.0157 12.0987 55.0566 12.0692C55.0974 12.0396 55.1165 11.9993 55.1165 11.9482C55.1165 11.8998 55.0893 11.8595 55.032 11.8245C54.9748 11.7896 54.9067 11.7573 54.8276 11.7251C54.7486 11.6928 54.6669 11.6606 54.5851 11.6256C54.5033 11.5907 54.4325 11.5396 54.3753 11.4697C54.318 11.3998 54.2908 11.3138 54.2908 11.2143C54.2908 11.0584 54.3507 10.9375 54.4734 10.8514C54.5933 10.7654 54.7459 10.7197 54.9285 10.7197C55.1601 10.7197 55.3481 10.7816 55.4899 10.9079L55.3372 11.1955C55.2882 11.1552 55.2255 11.1203 55.1465 11.0934C55.0675 11.0665 54.9912 11.0531 54.9148 11.0531C54.7595 11.0531 54.6832 11.1041 54.6832 11.2063C54.6832 11.252 54.7132 11.2923 54.7704 11.3246C54.8276 11.3568 54.8985 11.3891 54.9803 11.4213C55.062 11.4536 55.141 11.4832 55.2228 11.5154C55.3045 11.5477 55.3727 11.5987 55.4272 11.674C55.4817 11.7466 55.5089 11.8353 55.5089 11.9374C55.5089 12.0826 55.4517 12.2036 55.3345 12.3003C55.2201 12.3971 55.0675 12.4428 54.8767 12.4428C54.6096 12.4428 54.3916 12.3622 54.2227 12.2009L54.2254 12.2036Z" fill="black"/>
<path d="M55.9301 11.8037V11.1101H55.7148V10.7849H55.941V10.3145H56.3471V10.7849H56.7259V11.1101H56.3471V11.7526C56.3471 11.8709 56.3825 11.9515 56.4506 11.9972C56.5188 12.0429 56.5951 12.0644 56.6768 12.0644C56.7041 12.0644 56.7313 12.0644 56.7531 12.059V12.4166C56.6877 12.4219 56.6441 12.4273 56.625 12.4273C56.5678 12.4273 56.5133 12.4246 56.4615 12.4166C56.4098 12.4085 56.3498 12.3924 56.2817 12.3655C56.2135 12.3386 56.1563 12.3063 56.1073 12.2633C56.0582 12.2203 56.0173 12.1612 55.9819 12.0832C55.9465 12.0053 55.9301 11.9139 55.9301 11.8064V11.8037Z" fill="black"/>
<path d="M5.19547 0.370751C7.19029 0.760528 8.83357 2.83307 8.34849 4.78464C7.92609 6.47816 6.23104 8.86789 5.16822 10.2953C5.00199 10.5184 4.76762 10.8813 4.58231 11.0668C4.56596 11.0829 4.56051 11.1152 4.52508 11.1071C3.52495 9.7953 2.53299 8.44317 1.72089 7.00772C0.821587 5.41904 0.123945 4.01315 1.13498 2.25512C1.66094 1.33847 2.80823 0.577736 3.87649 0.370751C4.24167 0.30086 4.85755 0.303548 5.19547 0.370751ZM4.4079 1.91911C2.78915 2.01319 1.78629 3.73896 2.57387 5.15291C3.41049 6.65557 5.68055 6.64751 6.50355 5.13679C7.32655 3.62875 6.12748 1.81965 4.4079 1.91911Z" fill="#00AFE3"/>
<path d="M2.3775 11.6665L6.62603 11.6611C7.28007 11.7203 7.33184 12.5643 6.69688 12.6934H2.37477C1.76979 12.5724 1.78069 11.7875 2.38022 11.6665H2.3775Z" fill="#00AFE3"/>
</g>
<defs>
<clipPath id="clip0_1968_1787">
<rect width="56.182" height="12.3734" fill="white" transform="translate(0.597656 0.318359)"/>
</clipPath>
</defs>
</svg>
